<?xml version="1.0" encoding="utf-8"?>
<!-- Generator: Adobe Illustrator 16.0.0, SVG Export Plug-In . SVG Version: 6.00 Build 0)  -->
<!DOCTYPE svg PUBLIC "-//W3C//DTD SVG 1.1//EN" "http://www.w3.org/Graphics/SVG/1.1/DTD/svg11.dtd">
<svg version="1.1" id="Layer_1" xmlns="http://www.w3.org/2000/svg" xmlns:xlink="http://www.w3.org/1999/xlink" x="0px" y="0px"
	 width="19.082px" height="33.411px" viewBox="0 0 19.082 33.411" enable-background="new 0 0 19.082 33.411" xml:space="preserve">
<g>
	<path d="M2.088,33.411c0-1.152,0.36-1.8,1.08-2.017c2.016-0.576,2.665-1.368,2.665-4.32V12.241c0-1.656-0.144-2.664-0.504-3.024
		c-0.072,0-4.32,5.257-4.536,5.257c-0.216,0-0.504,0-0.792-0.072C3.456,7.705,5.4,2.952,5.76,0c0.936,0.216,2.448,0.288,4.464,0.288
		c2.088,0,3.672-0.072,4.752-0.288v27.219c0,5.904,3.96,2.088,4.104,6.192H2.088z"/>
</g>
</svg>
