<?xml version="1.0" encoding="utf-8"?>
<!-- Generator: Adobe Illustrator 16.0.0, SVG Export Plug-In . SVG Version: 6.00 Build 0)  -->
<!DOCTYPE svg PUBLIC "-//W3C//DTD SVG 1.1//EN" "http://www.w3.org/Graphics/SVG/1.1/DTD/svg11.dtd">
<svg version="1.1" id="Layer_1" xmlns="http://www.w3.org/2000/svg" xmlns:xlink="http://www.w3.org/1999/xlink" x="0px" y="0px"
	 width="27.291px" height="34.563px" viewBox="0 0 27.291 34.563" enable-background="new 0 0 27.291 34.563" xml:space="preserve">
<g>
	<path d="M19.082,34.563c-2.88,0-10.441-4.033-12.817-4.033c-3.096,0-3.528,2.736-5.472,2.736c-0.36,0-0.576-0.071-0.792-0.288
		c0.36-3.24,1.729-4.752,3.096-6.769c1.152-1.8,3.024-3.672,5.545-5.472c7.705-5.329,8.353-6.481,8.353-10.514
		s-2.376-6.912-6.192-6.912c-2.376,0-3.96,0.576-4.752,1.8c1.728,1.368,3.816,2.736,3.816,5.041c0,2.52-2.592,4.392-5.113,4.392
		c-2.952,0-4.392-1.439-4.392-4.392C0.36,3.601,5.544,0,13.753,0C24.122,0,26.57,6.625,26.57,9.937c0,2.377-0.792,4.249-2.376,5.617
		c-1.872,1.728-13.105,5.904-16.49,8.712v0.072c0.648-0.072,1.296-0.144,1.944-0.144c2.808,0,10.585,2.952,12.241,2.952
		c1.296,0,2.232-0.36,2.808-1.152c0.144-0.144,0.288-1.872,2.592-3.889C26.931,30.387,24.194,34.563,19.082,34.563z"/>
</g>
</svg>
