<?xml version="1.0" encoding="utf-8"?>
<!-- Generator: Adobe Illustrator 16.0.0, SVG Export Plug-In . SVG Version: 6.00 Build 0)  -->
<!DOCTYPE svg PUBLIC "-//W3C//DTD SVG 1.1//EN" "http://www.w3.org/Graphics/SVG/1.1/DTD/svg11.dtd">
<svg version="1.1" id="Layer_1" xmlns="http://www.w3.org/2000/svg" xmlns:xlink="http://www.w3.org/1999/xlink" x="0px" y="0px"
	 width="26.643px" height="33.555px" viewBox="0 0 26.643 33.555" enable-background="new 0 0 26.643 33.555" xml:space="preserve">
<g>
	<path d="M4.897,20.235c3.384,0,5.111,1.584,5.111,4.68c0,2.305-2.521,4.896-2.592,5.329c0.792,1.008,2.088,1.512,3.744,1.512
		c4.032,0,6.049-3.096,6.049-9.289c0-4.896-2.089-8.208-5.833-8.208c-1.872,0-3.815,0.647-5.903,1.872
		c-1.08,0.647,0.071,0.721-3.674,1.225C2.087,13.538,2.521,7.706,3.025,0c3.24,0.792,7.416,1.152,12.673,1.152
		c3.312,0,6.553-0.288,9.793-0.864c-0.576,5.113-5.112,7.705-13.609,7.705c-1.008,0-4.896-0.433-5.977-0.433
		c-0.288,0-0.576,3.889-0.576,5.977c2.665-1.224,5.4-1.872,8.281-1.872c7.2,0,13.033,4.177,13.033,10.729
		c0,6.769-6.121,11.16-14.113,11.16C4.681,33.555,0,29.666,0,25.634C0,22.754,2.087,20.235,4.897,20.235z"/>
</g>
</svg>
