<?xml version="1.0" encoding="utf-8"?>
<!-- Generator: Adobe Illustrator 16.0.0, SVG Export Plug-In . SVG Version: 6.00 Build 0)  -->
<!DOCTYPE svg PUBLIC "-//W3C//DTD SVG 1.1//EN" "http://www.w3.org/Graphics/SVG/1.1/DTD/svg11.dtd">
<svg version="1.1" id="Layer_1" xmlns="http://www.w3.org/2000/svg" xmlns:xlink="http://www.w3.org/1999/xlink" x="0px" y="0px"
	 width="26.857px" height="34.562px" viewBox="0 0 26.857 34.562" enable-background="new 0 0 26.857 34.562" xml:space="preserve">
<g>
	<path d="M21.315,17.498c-3.312,7.128-4.97,12.602-4.97,16.633v0.288c-1.08-0.144-3.097-0.216-6.12-0.216
		c-2.017,0-3.601,0.146-4.824,0.36c0.433-5.4,3.889-11.377,10.44-17.857c2.376-2.377,4.032-4.537,4.968-6.48
		c-2.159,1.08-4.248,1.655-6.336,1.655c-2.521,0-9.001-2.951-10.297-3.239c-1.008,0.432-1.872,2.808-2.521,4.752
		c-0.937-0.648-1.44-1.368-1.656-2.305V8.066c0-0.648,0.072-1.8,0.072-3.456V1.153c2.088,0.936,3.312,1.44,3.527,1.44
		C3.959,2.593,8.351,0,10.728,0c3.097,0,8.496,5.4,10.368,5.4c1.944,0,3.312-1.296,4.033-3.889h0.72
		c0.721,0,1.009,0.071,1.009,0.359C26.859,4.322,24.987,9.505,21.315,17.498z"/>
</g>
</svg>
