<?xml version="1.0" encoding="utf-8"?>
<!-- Generator: Adobe Illustrator 16.0.3, SVG Export Plug-In . SVG Version: 6.00 Build 0)  -->
<!DOCTYPE svg PUBLIC "-//W3C//DTD SVG 1.1//EN" "http://www.w3.org/Graphics/SVG/1.1/DTD/svg11.dtd">
<svg version="1.1" id="Layer_1" xmlns="http://www.w3.org/2000/svg" xmlns:xlink="http://www.w3.org/1999/xlink" x="0px" y="0px"
	 width="10px" height="26.295px" viewBox="0 0 10 26.295" enable-background="new 0 0 10 26.295" xml:space="preserve">
<path d="M0,0h1.397L1.092,13.759c0.875-1.44,2.226-2.142,4.061-2.142c2.621,0,4.847,1.835,4.847,4.278
	c-0.085,1.662-1.131,3.895-3.844,5.857L0,26.295V0z M1.268,15.199c-0.176,1.657-0.267,3.103-0.267,4.284
	c0,2.139,0.087,3.578,0.222,4.322c2.269-1.44,5.285-5.809,5.285-8.076c0-1.358-1.049-2.361-2.447-2.361
	C2.836,13.364,1.919,13.976,1.268,15.199z"/>
</svg>
