<?xml version="1.0" encoding="utf-8"?>
<!-- Generator: Adobe Illustrator 16.0.0, SVG Export Plug-In . SVG Version: 6.00 Build 0)  -->
<!DOCTYPE svg PUBLIC "-//W3C//DTD SVG 1.1//EN" "http://www.w3.org/Graphics/SVG/1.1/DTD/svg11.dtd">
<svg version="1.1" id="Layer_1" xmlns="http://www.w3.org/2000/svg" xmlns:xlink="http://www.w3.org/1999/xlink" x="0px" y="0px"
	 width="18.146px" height="48.027px" viewBox="0 0 18.146 48.027" enable-background="new 0 0 18.146 48.027" xml:space="preserve">
<image overflow="visible" width="89" height="213" xlink:href="8F41508F88BF16B3.jpg"  transform="matrix(0.24 0 0 0.24 -1.5002 -1.5002)">
</image>
<path d="M2.591,22.693v-5.301c0-0.352-0.009-0.566-0.027-0.645c-0.018-0.079-0.075-0.119-0.172-0.119
	c-0.064,0-0.292,0.066-0.682,0.199v-0.086c0.226-0.114,0.416-0.221,0.569-0.319s0.305-0.218,0.454-0.357
	c0.148-0.14,0.312-0.329,0.491-0.569h0.177v7.197c0,0.305,0.072,0.523,0.215,0.658c0.143,0.134,0.362,0.201,0.655,0.201v0.086H1.71
	v-0.086C2.297,23.552,2.591,23.266,2.591,22.693z"/>
<path d="M10.206,3.441L8.753,3.959L8.665,3.288l2.498-0.881L9.71,9.228h1.574l-0.144,0.66H6.982l0.143-0.66h1.848L10.206,3.441z"/>
<path d="M16.069,20.664v2.787h-2.766v-0.784c0-1.3,0.346-2.273,1.036-2.922c0.483-0.455,0.726-0.845,0.726-1.171
	c0-0.372-0.109-0.559-0.328-0.559c-0.236,0-0.354,0.2-0.354,0.602c0,0.122,0.017,0.279,0.048,0.473h-0.912
	c-0.036-0.469-0.055-0.855-0.055-1.16c0-1.285,0.444-1.928,1.332-1.928c0.889,0,1.332,0.688,1.332,2.062
	c0,0.977-0.304,1.688-0.912,2.132c-0.552,0.401-0.853,0.855-0.902,1.364h0.838v-0.896H16.069z"/>
<path d="M12.03,41.576H7.862v-0.639c1.056-1.179,1.743-1.968,2.057-2.369s0.571-0.822,0.768-1.262
	c0.197-0.441,0.296-0.88,0.296-1.316c0-0.423-0.128-0.756-0.384-0.999s-0.615-0.365-1.077-0.365c-0.354,0-0.831,0.109-1.429,0.327
	l-0.124-0.757c0.541-0.229,1.106-0.344,1.698-0.344c0.676,0,1.222,0.19,1.635,0.572c0.414,0.381,0.621,0.891,0.621,1.528
	c0,0.454-0.107,0.905-0.32,1.354c-0.213,0.447-0.486,0.877-0.818,1.289c-0.334,0.411-0.981,1.148-1.945,2.213h3.191V41.576z"/>
</svg>
