<?xml version="1.0" encoding="utf-8"?>
<!-- Generator: Adobe Illustrator 16.0.0, SVG Export Plug-In . SVG Version: 6.00 Build 0)  -->
<!DOCTYPE svg PUBLIC "-//W3C//DTD SVG 1.1//EN" "http://www.w3.org/Graphics/SVG/1.1/DTD/svg11.dtd">
<svg version="1.1" id="Layer_1" xmlns="http://www.w3.org/2000/svg" xmlns:xlink="http://www.w3.org/1999/xlink" x="0px" y="0px"
	 width="25.059px" height="34.131px" viewBox="0 0 25.059 34.131" enable-background="new 0 0 25.059 34.131" xml:space="preserve">
<g>
	<path d="M12.241,34.131C5.329,34.131,0,31.395,0,26.714c0-2.521,2.16-4.32,4.681-4.32c2.376,0,4.392,1.585,4.392,3.889
		c0,1.8-0.72,3.24-2.088,4.464c0.936,0.793,2.376,1.225,4.32,1.225c3.528,0,5.472-2.881,5.472-6.408
		c0-4.105-1.512-6.049-4.536-6.697c-2.88-0.216-5.185-0.576-5.185-1.224c0-2.52,0.576-2.088,3.024-2.376
		c4.536-0.432,6.48-1.8,6.48-6.336c0-4.393-2.16-6.625-6.409-6.625c-1.656,0-2.736,0.36-3.384,1.008
		c1.224,1.44,2.592,2.808,2.592,5.041c0,2.232-2.016,3.672-4.393,3.672c-2.592,0-4.608-1.872-4.608-4.537
		C0.36,2.736,5.185,0,12.097,0c7.561,0,12.313,3.168,12.313,9c0,3.384-2.376,6.625-5.761,7.849l0.072,0.072
		c3.744,0.792,6.337,3.6,6.337,7.344C25.059,30.819,20.233,34.131,12.241,34.131z"/>
</g>
</svg>
