<?xml version="1.0" encoding="utf-8"?>
<!-- Generator: Adobe Illustrator 16.0.3, SVG Export Plug-In . SVG Version: 6.00 Build 0)  -->
<!DOCTYPE svg PUBLIC "-//W3C//DTD SVG 1.1//EN" "http://www.w3.org/Graphics/SVG/1.1/DTD/svg11.dtd">
<svg version="1.1" id="Layer_1" xmlns="http://www.w3.org/2000/svg" xmlns:xlink="http://www.w3.org/1999/xlink" x="0px" y="0px"
	 width="50.692px" height="72.367px" viewBox="0 0 50.692 72.367" enable-background="new 0 0 50.692 72.367" xml:space="preserve">
<g>
	<path d="M9.001,0.289v71.718H0V0.289H9.001z M20.954,61.709c0-2.952,2.52-6.409,5.616-6.409c3.24,0,5.977,2.953,5.977,6.193
		s-5.112,5.04-5.112,5.904c0,1.584,1.872,2.376,5.544,2.376c6.409,0,8.641-3.24,8.641-14.474c0-6.769-2.735-12.601-6.696-12.601
		c-3.384,0-6.841,2.88-10.369,8.568c-0.936-7.416-3.456-12.601-6.769-12.601c-0.504,0-0.936,0.072-1.368,0.216v33.123h-2.88V0.289
		h2.88v34.202c0.36,0.072,0.648,0.145,1.009,0.145c3.6,0,6.408-5.833,7.128-12.962c4.249,5.113,7.562,7.633,10.009,7.633
		c4.321,0,6.841-5.112,6.841-12.169c0-11.593-2.304-13.969-10.297-13.969c-3.168,0-4.752,0.647-4.752,1.872
		c0,0.359,0.504,0.792,1.584,1.296c3.528,1.584,4.536,2.88,4.536,4.969c0,2.808-2.664,6.337-5.688,6.337
		c-3.672,0-6.336-2.881-6.336-6.553c0-2.593,0.863-4.969,2.52-7.129C25.562,0.576,29.307,0,33.051,0
		c10.513,0,17.354,5.617,17.354,15.266c0,8.929-5.904,17.138-13.321,17.138c-3.816,0-6.769-0.647-8.713-2.017h-0.359
		c-1.513,0-2.593,2.377-2.593,5.112c0,3.601,1.08,7.273,2.809,7.273c2.521-2.377,4.896-3.889,8.064-3.889
		c8.569,0,14.401,8.568,14.401,18.434c0,9.721-6.192,15.05-16.777,15.05C26.931,72.367,20.954,68.19,20.954,61.709z"/>
</g>
</svg>
