<?xml version="1.0" encoding="utf-8"?>
<!-- Generator: Adobe Illustrator 16.0.3, SVG Export Plug-In . SVG Version: 6.00 Build 0)  -->
<!DOCTYPE svg PUBLIC "-//W3C//DTD SVG 1.1//EN" "http://www.w3.org/Graphics/SVG/1.1/DTD/svg11.dtd">
<svg version="1.1" id="Layer_1" xmlns="http://www.w3.org/2000/svg" xmlns:xlink="http://www.w3.org/1999/xlink" x="0px" y="0px"
	 width="15.631px" height="40.561px" viewBox="0 0 15.631 40.561" enable-background="new 0 0 15.631 40.561" xml:space="preserve">
<g>
	<path d="M8.776,31.957C4.205,31.957,0,28.572,0,24.497c0-3.473,2.458-7.268,7.377-11.387C7.076,11.861,6.9,10.544,6.9,9.186
		C6.9,5.369,8.173,1.79,10.394,0c1.963,2.716,2.932,5.304,2.932,7.743c0,3.171-1.463,6.057-4.678,8.774l0.947,4.549
		c0.516-0.042,0.816-0.062,0.861-0.062c2.867,0,5.175,2.198,5.175,5.064c0,2.094-1.573,4.076-3.881,5.198
		c-0.021-0.15,0.929,4.119,0.929,4.724c0,2.694-2.457,4.569-5.348,4.569c-2.156,0-3.945-1.445-3.945-3.643
		c0-1.575,1.08-2.783,2.653-2.783c1.38,0,2.458,1.38,2.458,2.697c0,1.485-1.25,2.5-2.911,2.672c0.646,0.325,1.338,0.495,2.049,0.495
		c2.328,0,4.483-1.768,4.483-3.882c0-0.217-0.021-0.43-0.062-0.667l-0.818-3.989C10.545,31.805,9.79,31.957,8.776,31.957z
		 M13.778,26.869c0-1.791-1.293-3.536-3.147-3.536c-0.063,0-0.236,0.021-0.539,0.042l1.53,7.202
		C13.024,29.545,13.778,28.291,13.778,26.869z M10.782,3.084c-1.789,0-3.127,3.991-3.127,7.61c0,0.756,0.044,1.445,0.195,2.072
		c2.911-2.588,4.397-4.938,4.397-7.03c0-1.013-0.366-1.877-1.078-2.608C11.062,3.106,10.934,3.084,10.782,3.084z M6.384,26.286
		c0,1.099,0.581,2.024,1.768,2.76c-1.942-0.302-3.234-1.573-3.234-3.385c0-2.137,1.896-4.033,4.14-4.507l-0.906-4.312
		c-4.033,3.018-6.168,5.973-6.168,8.84c0,3.169,3.02,5.78,6.511,5.78c1.013,0,1.854-0.174,2.607-0.583l-1.551-7.418
		C7.764,23.699,6.384,24.797,6.384,26.286z"/>
</g>
</svg>
