<?xml version="1.0" encoding="utf-8"?>
<!-- Generator: Adobe Illustrator 16.0.0, SVG Export Plug-In . SVG Version: 6.00 Build 0)  -->
<!DOCTYPE svg PUBLIC "-//W3C//DTD SVG 1.1//EN" "http://www.w3.org/Graphics/SVG/1.1/DTD/svg11.dtd">
<svg version="1.1" id="Layer_1" xmlns="http://www.w3.org/2000/svg" xmlns:xlink="http://www.w3.org/1999/xlink" x="0px" y="0px"
	 width="25.994px" height="33.986px" viewBox="0 0 25.994 33.986" enable-background="new 0 0 25.994 33.986" xml:space="preserve">
<g>
	<path d="M13.033,33.989C5.544,33.989,0,30.46,0,24.627c0-3.527,2.16-6.553,5.616-7.488c-3.168-1.656-4.752-4.32-4.752-8.065
		C0.864,3.385,5.832,0,12.601,0c7.489,0,12.601,2.88,12.601,8.065c0,3.24-1.512,5.903-4.537,8.137
		c3.527,1.584,5.329,4.104,5.329,7.489C25.994,29.74,19.946,33.989,13.033,33.989z M8.497,18.651
		c-2.592,1.368-3.888,3.456-3.888,6.121c0,4.031,3.528,6.552,7.993,6.552c3.672,0,6.769-1.656,6.769-4.464
		C19.37,23.404,13.825,21.027,8.497,18.651z M20.233,7.49c0-3.528-2.735-5.328-7.272-5.328c-3.96,0-5.977,1.368-5.977,4.176
		c0,3.168,3.097,5.688,9.289,7.488c2.664-1.296,3.961-3.312,3.961-6.048V7.49L20.233,7.49z"/>
</g>
</svg>
