<?xml version="1.0" encoding="utf-8"?>
<!-- Generator: Adobe Illustrator 16.0.0, SVG Export Plug-In . SVG Version: 6.00 Build 0)  -->
<!DOCTYPE svg PUBLIC "-//W3C//DTD SVG 1.1//EN" "http://www.w3.org/Graphics/SVG/1.1/DTD/svg11.dtd">
<svg version="1.1" id="Layer_1" xmlns="http://www.w3.org/2000/svg" xmlns:xlink="http://www.w3.org/1999/xlink" x="0px" y="0px"
	 width="28.227px" height="33.627px" viewBox="0 0 28.227 33.627" enable-background="new 0 0 28.227 33.627" xml:space="preserve">
<g>
	<path d="M23.691,25.852v1.872c-0.072,0.72-0.072,1.152-0.072,1.367c0,1.801,0.647,2.16,4.104,2.448l0.288,2.089H10.296l0.145-2.017
		c2.231-0.146,3.601-0.647,4.033-1.44c0.144-0.359,0.216-1.801,0.216-4.319h-14.69V22.97C4.393,17.354,8.568,7.057,9.145,0h12.312
		c-0.721,3.24-3.24,7.129-7.633,11.521C9,16.345,6.048,20.089,4.969,22.826h9.721v-8.209l9.001-7.991v16.201h4.536v3.024H23.691z"/>
</g>
</svg>
