<?xml version="1.0" encoding="utf-8"?>
<!-- Generator: Adobe Illustrator 16.0.0, SVG Export Plug-In . SVG Version: 6.00 Build 0)  -->
<!DOCTYPE svg PUBLIC "-//W3C//DTD SVG 1.1//EN" "http://www.w3.org/Graphics/SVG/1.1/DTD/svg11.dtd">
<svg version="1.1" id="Layer_1" xmlns="http://www.w3.org/2000/svg" xmlns:xlink="http://www.w3.org/1999/xlink" x="0px" y="0px"
	 width="40px" height="20.44px" viewBox="-2.5 -0.333 40 20.44" enable-background="new -2.5 -0.333 40 20.44" xml:space="preserve"
	>
<path d="M18.589,0.163c7.502,0,15.412,4.176,15.412,9.724c0,6.048-6.492,9.72-16.156,9.72c-8.653,0-15.344-3.744-15.344-9.72
	C2.5,4.052,10.409,0.163,18.589,0.163z M25.146,7.868c-2.027-4.32-4.258-6.121-8.789-6.121c-4.326,0-6.489,1.872-6.489,5.544
	c0,5.476,4.596,10.73,8.858,10.73c3.92,0,7.229-0.436,7.975-4.465C26.7,11.9,26.159,10.029,25.146,7.868z"/>
</svg>
