<?xml version="1.0" encoding="utf-8"?>
<!-- Generator: Adobe Illustrator 16.0.0, SVG Export Plug-In . SVG Version: 6.00 Build 0)  -->
<!DOCTYPE svg PUBLIC "-//W3C//DTD SVG 1.1//EN" "http://www.w3.org/Graphics/SVG/1.1/DTD/svg11.dtd">
<svg version="1.1" id="Layer_1" xmlns="http://www.w3.org/2000/svg" xmlns:xlink="http://www.w3.org/1999/xlink" x="0px" y="0px"
	 width="18.146px" height="48.027px" viewBox="0 0 18.146 48.027" enable-background="new 0 0 18.146 48.027" xml:space="preserve">
<g>
	<path d="M17.857,43.06l-1.367-3.24c0.071-0.648,0.071-1.297,0.071-2.018c0-6.264-2.52-10.584-9.648-16.561
		c-4.248-3.6-3.889-3.24-6.913-3.24V0c0.648,0,1.009,0,0.937,0.072c-0.072,0.144-0.072,0.36-0.072,0.576s0,0.432,0.072,0.648
		c2.16,5.688,4.824,10.585,7.921,14.545c3.96,4.969,6.336,8.137,7.128,9.577c2.017,3.529,3.024,7.273,3.024,11.232
		C19.01,38.451,18.65,40.539,17.857,43.06z"/>
</g>
</svg>
