<?xml version="1.0" encoding="utf-8"?>
<!-- Generator: Adobe Illustrator 16.0.3, SVG Export Plug-In . SVG Version: 6.00 Build 0)  -->
<!DOCTYPE svg PUBLIC "-//W3C//DTD SVG 1.1//EN" "http://www.w3.org/Graphics/SVG/1.1/DTD/svg11.dtd">
<svg version="1.1" id="Layer_1" xmlns="http://www.w3.org/2000/svg" xmlns:xlink="http://www.w3.org/1999/xlink" x="0px" y="0px"
	 width="52.133px" height="59.693px" viewBox="0 0 52.133 59.693" enable-background="new 0 0 52.133 59.693" xml:space="preserve">
<g>
	<path d="M12.386,51.772c10.585-9.504,17.209-22.105,17.209-33.482c0-9.145-5.185-15.985-13.393-15.985
		c-5.833,0-12.169,4.896-12.169,9.937c0,0.792,0.144,1.152,0.504,1.152c-0.217,0,2.016-2.304,4.968-2.304
		c3.169,0,5.617,2.952,5.617,6.193c0,4.536-3.097,7.992-7.633,7.992S0,20.522,0,14.977C0,6.48,8.354,0,17.57,0
		c16.921,0,21.313,11.593,21.313,21.169c0,5.977-1.584,10.514-7.129,19.298C24.843,51.556,8.425,59.693,2.521,59.693
		c-1.512,0-2.232-0.576-2.304-1.656C5.473,56.38,9.577,54.292,12.386,51.772z M48.532,5.688c2.017,0,3.601,1.584,3.601,3.6
		c0,2.017-1.584,3.601-3.601,3.601c-2.016,0-3.6-1.584-3.6-3.601C44.933,7.272,46.517,5.688,48.532,5.688z M48.532,23.618
		c2.017,0,3.601,1.584,3.601,3.601s-1.584,3.601-3.601,3.601c-2.016,0-3.6-1.584-3.6-3.601S46.517,23.618,48.532,23.618z"/>
</g>
</svg>
