<?xml version="1.0" encoding="utf-8"?>
<!-- Generator: Adobe Illustrator 16.0.0, SVG Export Plug-In . SVG Version: 6.00 Build 0)  -->
<!DOCTYPE svg PUBLIC "-//W3C//DTD SVG 1.1//EN" "http://www.w3.org/Graphics/SVG/1.1/DTD/svg11.dtd">
<svg version="1.1" id="Layer_1" xmlns="http://www.w3.org/2000/svg" xmlns:xlink="http://www.w3.org/1999/xlink" x="0px" y="0px"
	 width="18.146px" height="48.027px" viewBox="0 0 18.146 48.027" enable-background="new 0 0 18.146 48.027" xml:space="preserve">
<path d="M18.146,33.069c-0.112-3.167-1.102-6.212-2.929-9.191c-0.289-0.432-2.377-3.168-6.337-8.209C5.224,10.938,5.672,12.624,0,0
	v17.951c2.16,0.288,3.552,0.526,6.936,2.831c5.833,4.104,8.786,8.712,8.786,13.753c0,4.393-0.721,8.209-2.09,11.449
	c-0.287,0.647-0.432,1.08-0.432,1.367c0,0.36,0.217,0.576,0.576,0.576c1.582,0,4.142-7.873,4.37-13.474V33.069z"/>
</svg>
