<?xml version="1.0" encoding="utf-8"?>
<!-- Generator: Adobe Illustrator 16.0.0, SVG Export Plug-In . SVG Version: 6.00 Build 0)  -->
<!DOCTYPE svg PUBLIC "-//W3C//DTD SVG 1.1//EN" "http://www.w3.org/Graphics/SVG/1.1/DTD/svg11.dtd">
<svg version="1.1" id="Layer_1" xmlns="http://www.w3.org/2000/svg" xmlns:xlink="http://www.w3.org/1999/xlink" x="0px" y="0px"
	 width="27.074px" height="34.418px" viewBox="0 0 27.074 34.418" enable-background="new 0 0 27.074 34.418" xml:space="preserve">
<g>
	<path d="M13.681,0c8.568,0,13.394,6.769,13.394,17.209c0,9.505-5.978,17.209-14.329,17.209c-5.761,0-11.306-2.952-11.306-6.984
		c0-2.665,1.872-4.896,4.536-4.896c2.881,0,4.824,2.232,4.824,5.113c0,0.791-0.72,2.52-0.72,3.168c0,1.08,0.792,1.584,2.376,1.584
		c3.889,0,5.762-4.177,5.762-12.674V18.29c-2.953,1.512-5.762,2.304-8.498,2.304c-5.761,0-9.721-3.456-9.721-9.217
		C0,4.033,5.4,0,13.681,0z M7.849,10.513c0,4.033,1.584,7.129,4.824,7.129c3.601,0,5.399-2.376,5.399-7.129
		c0-4.536-1.656-7.993-4.536-7.993C10.009,2.521,7.849,5.833,7.849,10.513z"/>
</g>
</svg>
