<?xml version="1.0" encoding="utf-8"?>
<!-- Generator: Adobe Illustrator 16.0.0, SVG Export Plug-In . SVG Version: 6.00 Build 0)  -->
<!DOCTYPE svg PUBLIC "-//W3C//DTD SVG 1.1//EN" "http://www.w3.org/Graphics/SVG/1.1/DTD/svg11.dtd">
<svg version="1.1" id="Layer_1" xmlns="http://www.w3.org/2000/svg" xmlns:xlink="http://www.w3.org/1999/xlink" x="0px" y="0px"
	 width="27.002px" height="33.986px" viewBox="0 0 27.002 33.986" enable-background="new 0 0 27.002 33.986" xml:space="preserve">
<g>
	<path d="M14.112,33.987C5.112,33.987,0,27.651,0,17.209C0,7.632,5.688,0,13.897,0c6.553,0,11.954,2.736,11.954,6.913
		c0,2.81-2.16,4.825-5.041,4.825c-2.809,0-5.041-2.088-5.041-4.896c0-0.792,0.793-2.52,0.793-3.168c0-1.151-0.865-1.728-2.521-1.728
		c-3.24,0-5.4,5.112-5.4,10.225c0,0.36,0,1.656,0.072,3.744c2.952-1.439,5.833-2.16,8.568-2.16c5.832,0,9.722,3.312,9.722,8.785
		C27.002,29.811,21.603,33.987,14.112,33.987z M9.001,24.195c0,4.896,1.656,7.345,4.896,7.345c3.097,0,4.681-2.448,4.681-7.345
		c0-4.824-1.368-7.272-4.104-7.272C10.801,16.921,9.001,19.369,9.001,24.195z"/>
</g>
</svg>
